<svg xmlns="http://www.w3.org/2000/svg" width="20" height="20" viewBox="0 0 20 20" fill="none">
  <mask id="mask0_3481_18831" style="mask-type:alpha" maskUnits="userSpaceOnUse" x="0" y="0" width="20" height="20">
    <rect width="20" height="20" fill="#D9D9D9"/>
  </mask>
  <g mask="url(#mask0_3481_18831)">
    <path d="M9.2487 13.8332L15.1237 7.95817L13.957 6.7915L9.2487 11.4998L6.8737 9.12484L5.70703 10.2915L9.2487 13.8332ZM10.4154 18.3332C9.26259 18.3332 8.17925 18.1144 7.16536 17.6769C6.15148 17.2394 5.26953 16.6457 4.51953 15.8957C3.76953 15.1457 3.17578 14.2637 2.73828 13.2498C2.30078 12.2359 2.08203 11.1526 2.08203 9.99984C2.08203 8.84706 2.30078 7.76373 2.73828 6.74984C3.17578 5.73595 3.76953 4.854 4.51953 4.104C5.26953 3.354 6.15148 2.76025 7.16536 2.32275C8.17925 1.88525 9.26259 1.6665 10.4154 1.6665C11.5681 1.6665 12.6515 1.88525 13.6654 2.32275C14.6793 2.76025 15.5612 3.354 16.3112 4.104C17.0612 4.854 17.6549 5.73595 18.0924 6.74984C18.5299 7.76373 18.7487 8.84706 18.7487 9.99984C18.7487 11.1526 18.5299 12.2359 18.0924 13.2498C17.6549 14.2637 17.0612 15.1457 16.3112 15.8957C15.5612 16.6457 14.6793 17.2394 13.6654 17.6769C12.6515 18.1144 11.5681 18.3332 10.4154 18.3332Z" fill="#575C5F"/>
  </g>
</svg>