<svg xmlns="http://www.w3.org/2000/svg" width="20" height="20" viewBox="0 0 20 20" fill="none">
  <mask id="mask0_3481_18837" style="mask-type:alpha" maskUnits="userSpaceOnUse" x="0" y="0" width="20" height="20">
    <rect width="20" height="20" fill="#D9D9D9"/>
  </mask>
  <g mask="url(#mask0_3481_18837)">
    <path d="M10.0013 18.3332C8.84852 18.3332 7.76519 18.1144 6.7513 17.6769C5.73741 17.2394 4.85547 16.6457 4.10547 15.8957C3.35547 15.1457 2.76172 14.2637 2.32422 13.2498C1.88672 12.2359 1.66797 11.1526 1.66797 9.99984C1.66797 8.84706 1.88672 7.76373 2.32422 6.74984C2.76172 5.73595 3.35547 4.854 4.10547 4.104C4.85547 3.354 5.73741 2.76025 6.7513 2.32275C7.76519 1.88525 8.84852 1.6665 10.0013 1.6665C11.1541 1.6665 12.2374 1.88525 13.2513 2.32275C14.2652 2.76025 15.1471 3.354 15.8971 4.104C16.6471 4.854 17.2409 5.73595 17.6784 6.74984C18.1159 7.76373 18.3346 8.84706 18.3346 9.99984C18.3346 11.1526 18.1159 12.2359 17.6784 13.2498C17.2409 14.2637 16.6471 15.1457 15.8971 15.8957C15.1471 16.6457 14.2652 17.2394 13.2513 17.6769C12.2374 18.1144 11.1541 18.3332 10.0013 18.3332ZM10.0013 16.6665C11.8624 16.6665 13.4388 16.0207 14.7305 14.729C16.0221 13.4373 16.668 11.8609 16.668 9.99984C16.668 8.13873 16.0221 6.56234 14.7305 5.27067C13.4388 3.979 11.8624 3.33317 10.0013 3.33317C8.14019 3.33317 6.5638 3.979 5.27214 5.27067C3.98047 6.56234 3.33464 8.13873 3.33464 9.99984C3.33464 11.8609 3.98047 13.4373 5.27214 14.729C6.5638 16.0207 8.14019 16.6665 10.0013 16.6665Z" fill="#888D8F"/>
  </g>
</svg>